<?xml version="1.0" encoding="UTF-8"?>
<svg xmlns="http://www.w3.org/2000/svg" 
     viewBox="0 0 1000 404" 
     width="1000" height="404">
<g transform="translate(0.000000,404.000000) scale(0.100000,-0.100000)"
fill="#B9860B" stroke="none">

<path d="M4400 2040 l0 -1140 235 0 235 0 0 1140 0 1140 -235 0 -235 0 0
-1140z M6130 2729 l0 -452 -46 43 c-57 53 -168 106 -264 126 l-75 16 -105 -6
c-129 -6 -200 -24 -310 -78 l-85 -41 -80 -81 -80 -81 -48 -95 c-26 -52 -57
-131 -68 -175 l-20 -80 -6 -120 -6 -120 12 -90 c25 -183 95 -330 211 -445 l67
-66 79 -41 c44 -23 108 -49 144 -59 l65 -18 135 0 135 0 78 27 c99 34 169 79
228 145 l47 51 6 -52 c4 -29 9 -71 12 -95 l6 -42 219 0 219 0 0 1140 0 1140
-235 0 -235 0 0 -451z m-203 -723 l63 -29 41 -44 c22 -25 53 -70 67 -101 l27
-57 0 -110 0 -110 -29 -62 -29 -63 -49 -46 c-27 -25 -70 -55 -96 -67 l-47 -21
-86 -4 -86 -4 -56 16 c-102 30 -193 121 -223 223 l-16 56 0 86 0 87 21 59 c35
98 108 173 203 207 l53 18 90 -3 90 -2 62 -29z M1377 3155 c-106 -18 -226 -59
-322 -108 -325 -168 -528 -477 -576 -877 l-11 -95 6 -135 c13 -292 98 -526
264 -726 65 -78 193 -181 282 -228 90 -48 227 -92 329 -107 l83 -12 147 6 146
5 90 26 c122 36 226 90 290 148 l53 48 12 -100 12 -100 209 0 209 0 0 640 0
640 -525 0 -525 0 0 -210 0 -210 295 0 295 0 0 -25 c0 -39 -38 -145 -71 -197
-61 -95 -154 -160 -280 -194 l-64 -18 -125 0 -125 0 -64 18 c-36 10 -92 31
-125 48 l-60 30 -61 62 -61 61 -37 71 -37 72 -21 88 -22 89 0 135 1 135 17 80
c22 106 67 212 120 284 l43 59 67 48 c37 26 97 58 134 72 l66 25 125 5 126 4
63 -16 c170 -44 279 -133 324 -267 l15 -44 257 -3 256 -2 -6 47 c-11 79 -63
223 -107 297 -52 88 -172 214 -259 272 -94 62 -204 111 -318 141 l-96 25 -180
4 -180 3 -78 -14z M3379 2450 c-219 -26 -415 -130 -540 -287 -103 -130 -155
-270 -166 -453 l-5 -95 11 -80 c54 -381 338 -635 748 -669 l81 -7 102 11 c123
14 210 39 310 91 190 98 325 267 382 478 l21 76 1 140 0 140 -17 70 c-10 39
-38 111 -62 160 -78 158 -182 263 -340 340 -161 80 -332 107 -526 85z m242
-430 c35 -11 81 -33 102 -49 57 -43 94 -98 117 -170 l20 -63 0 -77 0 -77 -16
-55 c-8 -30 -31 -77 -50 -106 -60 -88 -143 -132 -265 -140 l-77 -6 -73 22 -72
23 -63 62 -62 62 -21 68 -21 68 0 78 0 78 20 64 20 65 41 47 c72 81 167 124
280 125 l57 1 63 -20z M6962 1396 c-80 -26 -134 -74 -177 -156 l-19 -35 0 -70
0 -70 23 -48 c13 -26 44 -65 69 -87 l45 -40 55 -16 56 -16 51 5 c94 10 173 63
219 148 l29 52 0 66 1 66 -21 45 c-23 51 -98 125 -148 146 -18 7 -57 16 -87
19 l-53 5 -43 -14z"/>

</g>
<g transform="translate(0.000000,404.000000) scale(0.100000,-0.100000)"
fill="#1A0F07" stroke="none">

<path d="M9197 3166 c-27 -7 -67 -26 -89 -42 l-41 -29 -30 -54 -30 -53 0 -72
-1 -71 16 -36 c24 -55 78 -110 133 -135 l50 -24 60 0 60 0 45 21 c91 41 148
121 157 219 l6 57 -18 53 -18 53 -41 41 c-50 50 -95 73 -161 80 l-50 6 -48
-14z M7540 2020 l0 -1120 245 0 245 0 0 435 0 435 390 0 390 0 0 220 0 220
-390 0 -390 0 0 235 0 235 463 2 462 3 3 228 2 227 -710 0 -710 0 0 -1120z
M9040 1655 l0 -755 230 0 230 0 0 755 0 755 -230 0 -230 0 0 -755z"/>

</g>
</svg>