<svg width="512" height="512" viewBox="0 0 512 512" fill="none" xmlns="http://www.w3.org/2000/svg">
<g clip-path="url(#clip0_5016_7)">
<path d="M408 0H104C46.5624 0 0 46.5624 0 104V408C0 465.438 46.5624 512 104 512H408C465.438 512 512 465.438 512 408V104C512 46.5624 465.438 0 408 0Z" fill="#FFFDF8"/>
<g filter="url(#filter0_f_5016_7)">
<ellipse cx="270.5" cy="454" rx="349.5" ry="115" fill="url(#paint0_radial_5016_7)" fill-opacity="0.23"/>
</g>
<path d="M83.7823 220.692C77.0008 220.692 71.3327 222.231 66.778 225.308C62.2232 228.282 58.7819 232.487 56.4539 237.923C54.1259 243.359 52.962 249.769 52.962 257.154C52.962 264.744 54.2778 271.103 56.9094 276.231C59.541 281.359 63.1342 285.205 67.6889 287.769C72.3449 290.231 77.6587 291.462 83.6305 291.462C88.6913 291.462 92.993 290.795 96.5355 289.462C100.078 288.128 102.912 286.282 105.038 283.923C107.264 281.564 108.884 278.897 109.896 275.923C111.009 272.949 111.566 269.872 111.566 266.692V257.615L123.257 269.462H81.6568V247.615H134.492V313H113.388L111.414 297.462L114.147 299.769C112.528 302.744 109.997 305.359 106.556 307.615C103.216 309.872 99.2684 311.615 94.7136 312.846C90.2601 314.077 85.503 314.692 80.4422 314.692C70.0169 314.692 60.7556 312.282 52.6583 307.462C44.6622 302.538 38.3868 295.718 33.8321 287C29.2774 278.282 27 268.077 27 256.385C27 244.897 29.3786 234.744 34.1357 225.923C38.8929 217 45.5732 210.026 54.1766 205C62.7799 199.872 72.8509 197.308 84.3896 197.308C93.3978 197.308 101.495 199 108.681 202.385C115.969 205.667 121.89 210.385 126.445 216.538C131 222.59 133.682 229.718 134.492 237.923H108.681C107.264 231.872 104.228 227.513 99.572 224.846C94.9161 222.077 89.6528 220.692 83.7823 220.692Z" fill="#B9860B"/>
<path d="M138.005 274.385C138.005 266.282 139.776 259.205 143.319 253.154C146.963 247 151.922 242.231 158.198 238.846C164.574 235.462 171.811 233.769 179.909 233.769C188.006 233.769 195.192 235.462 201.468 238.846C207.743 242.231 212.652 247 216.195 253.154C219.839 259.205 221.66 266.282 221.66 274.385C221.66 282.487 219.839 289.564 216.195 295.615C212.652 301.667 207.743 306.385 201.468 309.769C195.192 313.154 188.006 314.846 179.909 314.846C171.811 314.846 164.574 313.154 158.198 309.769C151.922 306.385 146.963 301.667 143.319 295.615C139.776 289.564 138.005 282.487 138.005 274.385ZM161.538 274.231C161.538 278.128 162.297 281.564 163.815 284.538C165.435 287.41 167.611 289.667 170.344 291.308C173.077 292.846 176.265 293.615 179.909 293.615C183.552 293.615 186.741 292.846 189.474 291.308C192.206 289.667 194.332 287.41 195.85 284.538C197.369 281.564 198.128 278.128 198.128 274.231C198.128 270.333 197.369 266.949 195.85 264.077C194.332 261.205 192.206 259 189.474 257.462C186.741 255.821 183.552 255 179.909 255C176.265 255 173.077 255.821 170.344 257.462C167.611 259 165.435 261.205 163.815 264.077C162.297 266.949 161.538 270.333 161.538 274.231Z" fill="#B9860B"/>
<path d="M248.783 313H225.402V197H248.783V313Z" fill="#B9860B"/>
<path d="M288.392 315C281.105 315 274.779 313.359 269.414 310.077C264.05 306.795 259.85 302.179 256.813 296.231C253.878 290.179 252.41 283.103 252.41 275C252.41 266.795 253.928 259.615 256.965 253.462C260.001 247.205 264.303 242.333 269.87 238.846C275.538 235.359 282.218 233.615 289.911 233.615C294.668 233.615 299.071 234.487 303.119 236.231C307.269 237.974 310.458 240.282 312.684 243.154V197H336.065V313H314.051L312.836 303.154C310.812 306.641 307.573 309.513 303.119 311.769C298.767 313.923 293.858 315 288.392 315ZM294.01 293.308C297.654 293.308 300.842 292.538 303.575 291C306.409 289.359 308.585 287.103 310.103 284.231C311.723 281.256 312.533 277.872 312.533 274.077C312.533 270.179 311.723 266.795 310.103 263.923C308.585 261.051 306.409 258.846 303.575 257.308C300.842 255.667 297.654 254.846 294.01 254.846C290.366 254.846 287.178 255.667 284.445 257.308C281.712 258.949 279.587 261.205 278.068 264.077C276.651 266.949 275.943 270.282 275.943 274.077C275.943 277.872 276.651 281.205 278.068 284.077C279.587 286.949 281.712 289.205 284.445 290.846C287.178 292.487 290.366 293.308 294.01 293.308Z" fill="#B9860B"/>
<path d="M358.385 315C354.539 315 351.249 313.667 348.516 311C345.784 308.231 344.417 304.949 344.417 301.154C344.417 297.256 345.784 293.974 348.516 291.308C351.249 288.538 354.539 287.154 358.385 287.154C362.13 287.154 365.369 288.538 368.102 291.308C370.936 293.974 372.353 297.256 372.353 301.154C372.353 304.949 370.936 308.231 368.102 311C365.369 313.667 362.13 315 358.385 315Z" fill="#B9860B"/>
<path d="M408.18 199.154V313H383.585V199.154H408.18ZM455.094 222.231H385.862V199.154H455.094V222.231ZM447.654 268.538H385.255V246.077H447.654V268.538Z" fill="#E8C468"/>
<path d="M459.253 313V236.077H482.634V313H459.253ZM470.791 224.077C467.046 224.077 463.858 222.795 461.226 220.231C458.696 217.564 457.431 214.333 457.431 210.538C457.431 206.744 458.696 203.564 461.226 201C463.858 198.436 467.046 197.154 470.791 197.154C474.435 197.154 477.522 198.436 480.053 201C482.684 203.564 484 206.744 484 210.538C484 214.333 482.684 217.564 480.053 220.231C477.522 222.795 474.435 224.077 470.791 224.077Z" fill="#E8C468"/>
</g>
<defs>
<filter id="filter0_f_5016_7" x="-261.2" y="156.8" width="1063.4" height="594.4" filterUnits="userSpaceOnUse" color-interpolation-filters="sRGB">
<feFlood flood-opacity="0" result="BackgroundImageFix"/>
<feBlend mode="normal" in="SourceGraphic" in2="BackgroundImageFix" result="shape"/>
<feGaussianBlur stdDeviation="91.1" result="effect1_foregroundBlur_5016_7"/>
</filter>
<radialGradient id="paint0_radial_5016_7" cx="0" cy="0" r="1" gradientUnits="userSpaceOnUse" gradientTransform="translate(270.5 454) rotate(90) scale(115 349.5)">
<stop stop-color="#B9860B"/>
<stop offset="1" stop-color="#FFE095"/>
</radialGradient>
<clipPath id="clip0_5016_7">
<rect width="512" height="512" rx="102" fill="white"/>
</clipPath>
</defs>
</svg>
